<svg xmlns="http://www.w3.org/2000/svg" width="310" height="173" version="1.1" viewBox="0 0 310 173"><g id="Page-1" fill="none" fill-rule="evenodd" stroke="none" stroke-width="1"><g id="cymg_Logo-new-color-Copy-4" fill="#0B5F11" fill-rule="nonzero"><g id="Group" transform="matrix(1 0 0 -1 0 173)"><path id="Path" d="M260.377 171.678c-1.213-.673-4.58-2.824-7.41-4.706-14.864-10.038-30.178-17.073-54.608-25.14-13.427-4.436-22.184-8.2-29.37-12.682l-3.367-2.106 4.446-.224 4.445-.224 8.937-19.045c4.94-10.487 9.071-19.18 9.251-19.36.18-.134 4.446 8.47 9.476 19.18l9.16 19.45h21.422V63.902l1.392 1.344c.763.717 2.784 2.958 4.49 4.975l3.144 3.674-.943 3.182c-.539 1.748-1.257 4.705-1.617 6.543-2.604 13.712 2.74 30.203 12.889 39.883 3.862 3.63 6.556 5.377 11.631 7.573l4.266 1.882.629 3.54c.45 2.51.629 7.708.674 17.88.045 13.982 0 14.386-.943 16.178-.54 1.031-1.303 1.972-1.707 2.151-1.617.628-4.131.224-6.287-1.03ZM97.676 131.525c-1.976-.851-2.964-3.226-2.604-6.184.628-4.615 3.053-9.052 5.658-10.396 1.841-.941 4.895-.852 6.601.224 2.201 1.3 2.605 2.51 2.47 7.215-.09 2.51-2.829 7.304-5.03 8.828-1.75 1.165-4.804 1.3-7.095.313ZM29.551 129.33c-11.63-2.33-21.106-9.5-26.046-19.763-2.874-6.005-3.548-9.142-3.503-16.58 0-7.395.853-11.114 3.682-16.626C10.331 63.276 23.31 56.24 39.386 57.047c5.524.269 9.386 1.254 14.236 3.72 3.009 1.478 8.532 5.645 10.957 8.2l1.303 1.389-5.12 5.153-5.164 5.154-2.246-2.196c-5.03-4.974-10.643-7.035-18.008-6.677-3.727.224-4.67.448-7.5 1.837-5.478 2.69-8.936 6.812-10.732 12.548-.764 2.599-.898 3.899-.719 8.38.18 5.019.27 5.467 1.842 8.649 2.65 5.377 8.128 9.724 13.831 11.024 3.368.806 9.43.582 12.574-.404 3.413-1.03 7.77-3.764 10.06-6.318 1.93-2.151 1.077-2.689 7.365 4.526l4.086 4.66-2.155 2.196c-4.401 4.526-10.958 8.335-17.155 9.904-3.997 1.03-13.248 1.344-17.29.538Z"/><path id="Path" d="M77.962 126.955c-1.123-2.958-1.033-7.798.18-10.442 2.739-6.05 8.083-9.68 19.67-13.444 6.825-2.196 8.621-3.047 11.001-5.198 2.29-2.061 3.234-3.675 4.76-7.797 1.303-3.675 1.483-6.677.584-10.442-.898-3.943-2.38-6.274-6.062-9.545-3.638-3.271-4.67-4.93-4.67-7.618 0-2.375 1.392-6.453 2.155-6.453 1.168 0 5.03 3.182 7.724 6.363 6.602 7.843 8.533 15.55 7.006 28.008-1.752 14.161-.404 19.539 6.691 27.38 2.515 2.78 4.176 3.81 10.778 6.588 2.74 1.166 5.344 2.465 5.838 2.958.853.851.853.851-.988.851-2.83 0-9.34-2.016-14.056-4.346-5.793-2.868-11.227-8.156-13.607-13.13-1.572-3.361-2.56-6.946-2.56-9.411v-1.345l-2.74 2.196c-3.457 2.779-7.858 4.93-13.876 6.767-11.272 3.45-15.628 7.887-16.077 16.491-.134 2.017-.359 3.675-.539 3.675-.224 0-.763-.941-1.212-2.106ZM271.604 128.12c-11.99-2.913-22.14-12.548-25.912-24.603-.898-2.957-1.033-4.257-1.033-10.979 0-6.722.135-8.021 1.033-10.979 3.593-11.472 12.35-20.255 23.622-23.706 9.7-3.002 22.453-1.882 31.255 2.689 1.887.941 4.76 2.868 6.422 4.257L310 67.31V92.762h-15.718l-.09-9.724-.134-9.77-2.56-.985c-3.638-1.479-10.194-2.196-13.921-1.613-7.904 1.344-14.46 7.528-16.257 15.37-2.02 8.829.18 17.522 5.793 22.81 8.084 7.663 20.478 7.842 29.819.493 1.302-1.03 2.515-1.703 2.694-1.524 1.033 1.166 7.68 11.024 7.68 11.383 0 .807-5.569 4.57-9.251 6.319-5.48 2.599-10.06 3.54-17.02 3.495-4.177 0-6.871-.269-9.431-.896Z"/><path id="Path" d="M133.737 118.126c-3.952-2.644-6.826-6.139-9.25-11.248-1.258-2.599-2.201-5.063-2.111-5.467.224-1.3 1.482-1.165 2.11.18 1.303 2.823 5.659 8.872 8.398 11.696 3.099 3.137 3.997 4.66 3.413 5.736-.27.493-.808.313-2.56-.897ZM149.59 113.421c-9.072-9.77-12.08-19.897-10.06-33.654.898-5.916 4.267-19.628 5.614-22.63l.898-2.062 3.413 3.45 3.368 3.451-.09 27.336-.135 27.336-3.008-3.227ZM207.206 80.797l-9.61-19.404h-9.52l-3.279 6.543c-2.425 4.84-3.413 6.408-3.817 6.095-2.605-2.107-8.622-6.409-10.104-7.26l-1.886-1.076V55.568h-16.481l-1.707-1.658c-1.572-1.524-1.617-1.658-.853-2.24.449-.36 2.02-.583 3.727-.583 1.617 0 7.275-.314 12.574-.673 26.81-1.837 38.217-1.12 49.22 3.003 4.22 1.613 4.984 2.15 3.008 2.15h-1.437l-.09 22.318-.135 22.271-9.61-19.359ZM169.035 85.727 168.99 71.7l3.278 1.927c5.658 3.361 7.05 4.347 7.05 4.93 0 .269-2.335 5.198-5.119 10.844l-5.12 10.307-.044-13.981ZM123.319 81.828c.763-1.927.808-4.84.134-7.484-.539-2.106-1.526-4.033-3.772-7.26-3.997-5.825-5.973-8.962-5.703-9.186.404-.448 4.625 2.465 6.826 4.66 1.257 1.3 2.964 3.72 3.772 5.378 1.302 2.6 1.482 3.496 1.527 6.408 0 2.868-.225 3.81-1.257 5.781-1.123 2.106-2.111 3.227-1.527 1.703ZM7.996 40.824c-6.018-2.733-7.41-10.441-2.74-15.101 3.458-3.451 8.802-3.81 12.395-.762 1.392 1.165 1.392 1.165.539 2.061-.898.896-.898.896-2.47-.09-2.29-1.389-5.659-1.3-7.5.225-2.74 2.33-3.413 5.332-1.841 8.245 1.706 3.271 6.601 4.437 9.52 2.286l1.393-1.031.943.896c.808.807.853 1.03.269 1.703-1.886 2.285-7.23 3.092-10.508 1.568Z"/><path id="Shape" d="M240.618 40.824c-4.312-1.927-6.557-6.946-5.12-11.292 1.392-4.034 4.76-6.409 9.161-6.409 4.895 0 8.308 2.734 9.296 7.394 1.213 5.916-3.143 11.159-9.296 11.159-1.212 0-3.053-.403-4.041-.852Zm7.454-2.868c5.524-3.674 3.144-12.144-3.413-12.144-2.74 0-4.67 1.165-5.793 3.496-2.11 4.436 1.033 9.68 5.793 9.68a6.114 6.114 0 0 0 3.413-1.032Z"/><path id="Path" d="M23.04 32.265v-8.962h2.694v7.17H35.165v-7.17h2.694V41.228H35.21l-.135-3.899-.135-3.944-4.58-.134-4.626-.134v8.111H23.04zM43.248 32.265v-8.962H45.943V41.228H43.248zM51.332 32.265v-8.962h11.227v2.688h-8.084v15.237h-3.143z"/><path id="Shape" d="M66.151 32.31v-9.007h4.626c6.646.044 9.026 1.075 10.688 4.705 2.02 4.347.539 9.77-3.234 11.875-1.706.941-2.65 1.12-7.005 1.255l-5.075.18V32.31Zm10.15 5.333c2.155-1.076 3.008-2.644 3.008-5.557 0-4.123-2.425-6.095-7.5-6.095h-2.963V38.54h2.784c1.886 0 3.368-.314 4.67-.896ZM86.36 32.265v-8.962h3.143V29.128h2.156c2.11 0 2.11-.045 4.131-2.913 1.931-2.778 2.11-2.912 3.952-2.912h1.886l-2.335 3.226c-1.527 2.106-2.156 3.271-1.751 3.406 2.38.807 3.862 4.078 3.188 7.08-.763 3.361-2.694 4.213-9.745 4.213H86.36v-8.963Zm10.777 5.378c1.123-1.12 1.168-3.182.09-4.482-.673-.851-1.392-1.075-4.266-1.254l-3.458-.224v6.856h3.368c2.784 0 3.548-.18 4.266-.896Z"/><path id="Path" d="M105.67 32.265v-8.962h13.023v2.688h-10.329v4.93h8.981v2.689h-8.98v4.929h9.88v2.689H105.67zM122.735 32.265v-8.962h2.649l.135 6.587.135 6.632 5.12-6.632c5.029-6.453 5.164-6.587 6.87-6.587h1.707V41.228h-3.144V27.694l-5.254 6.767c-4.895 6.274-5.389 6.767-6.736 6.767h-1.482v-8.963Z"/><path id="Shape" d="M156.73 40.018c-.36-.672-1.168-2.465-1.796-3.944a348.842 348.842 0 0 0-3.413-7.708l-2.246-5.063h1.572c1.437 0 1.662.179 2.47 2.016l.898 2.017h9.296l.808-2.017c.674-1.837.899-2.016 2.29-2.016 1.887 0 2.066-.628-2.56 9.814l-3.547 7.887-1.572.134c-1.347.135-1.661-.045-2.2-1.12Zm3.997-6.543 1.392-3.226-3.099-.135c-1.751-.09-3.233-.045-3.368.045-.09.09.54 1.748 1.437 3.675.853 1.927 1.707 3.36 1.886 3.181.18-.134.943-1.747 1.752-3.54Z"/><path id="Path" d="M171.235 32.265v-8.962h2.65l.134 6.542.135 6.543 5.075-6.543c5.03-6.453 5.12-6.542 6.87-6.542h1.752V41.228h-3.099l-.134-6.722-.135-6.677-5.164 6.677c-4.76 6.184-5.3 6.677-6.602 6.722h-1.482v-8.963Z"/><path id="Shape" d="M192.79 32.265v-8.962h4.716c5.075 0 7.185.537 9.116 2.375 1.842 1.703 2.515 3.495 2.515 6.587 0 6.408-3.413 8.963-11.9 8.963h-4.446v-8.963Zm10.105 5.647c4.356-1.838 4.49-9.053.27-11.248-.809-.404-2.515-.673-4.312-.673h-2.919V38.54h2.695c1.482 0 3.413-.269 4.266-.627Z"/><path id="Path" d="M218.074 40.914c.09-.18 1.661-2.689 3.413-5.557l3.188-5.198v-6.856h3.144v7.304l3.143 5.109c1.752 2.823 3.144 5.198 3.144 5.288 0 .134-.674.224-1.527.224-1.437 0-1.661-.224-3.907-4.033-1.392-2.33-2.56-3.854-2.784-3.63-.225.224-1.347 1.972-2.515 3.898-1.976 3.317-2.2 3.54-3.817 3.675-.943.09-1.617 0-1.482-.224ZM257.907 35.044c0-5.512.09-6.364 1.033-8.156 1.796-3.63 6.422-5.02 10.15-3.048 3.547 1.838 3.861 2.555 3.996 10.487l.135 6.9h-2.65l-.18-6.139c-.09-5.063-.269-6.408-.943-7.394-1.661-2.464-5.344-2.599-7.275-.269-1.077 1.255-1.122 1.569-1.122 7.574v6.229h-3.144v-6.184ZM276.32 39.883V38.54h5.838V23.303h2.694v15.236h5.838v2.689H276.319zM293.833 32.265v-8.962h3.144v7.17h8.981v-7.17h3.144V41.228h-3.144V33.16h-8.981v8.067h-3.144z"/><path id="Shape" d="M61.75 16.088c-5.164-2.555-6.017-9.949-1.661-13.803a8.791 8.791 0 0 1 11.676 0c4.4 3.854 3.502 11.293-1.662 13.803-2.605 1.255-5.838 1.255-8.353 0Zm6.96-2.196c5.345-3.227 3.414-11.203-2.694-11.203-6.152 0-8.263 7.618-3.053 11.069 1.886 1.254 3.862 1.3 5.748.134Z"/><path id="Path" d="M106.793 16.357c-3.279-1.793-4.716-4.123-4.716-7.843 0-4.346 2.92-7.752 7.186-8.335 2.425-.313 5.254.359 6.915 1.658 1.033.807 1.168 1.255 1.168 3.585 0 2.644 0 2.644-1.347 2.644-1.303 0-1.348-.045-1.348-2.196 0-2.016-.09-2.24-1.347-2.733-2.155-.896-5.254-.314-6.826 1.255-2.604 2.599-2.11 7.394.988 9.186 1.572.941 5.3.986 6.602.09.853-.583.988-.583 1.661.448.674 1.03.674 1.12-.494 1.882-1.661 1.12-6.646 1.3-8.442.359Z"/><path id="Shape" d="M142.943 16.536c-2.425-.986-4.535-3.72-5.074-6.588C136.926 5.153 141.372 0 146.356 0c3.099 0 6.961 2.51 8.084 5.243 1.212 2.823.494 7.036-1.527 9.232-2.021 2.24-6.916 3.27-9.97 2.06Zm6.242-2.554c2.964-1.569 4.042-5.602 2.29-8.47-1.077-1.837-3.008-2.823-5.433-2.823-1.572 0-2.156.269-3.593 1.747-1.571 1.569-1.751 1.972-1.751 4.078 0 4.84 4.4 7.663 8.487 5.468ZM218.478 16.088c-5.164-2.555-6.018-9.949-1.662-13.803a8.791 8.791 0 0 1 11.677 0c4.4 3.854 3.502 11.293-1.662 13.803-2.605 1.255-5.838 1.255-8.353 0Zm6.96-2.196c5.345-3.227 3.414-11.203-2.694-11.203-6.152 0-8.263 7.618-3.053 11.069 1.886 1.254 3.862 1.3 5.748.134Z"/><path id="Path" d="M3.28 8.514V.448H5.93l.135 6.408.134 6.364 2.92-5.691c1.796-3.585 3.143-5.736 3.592-5.736.404 0 1.841 2.24 3.682 5.736l3.054 5.69V.449H22.142V16.581h-4.446l-2.336-4.93c-1.302-2.688-2.47-4.93-2.65-4.93-.179 0-1.346 2.242-2.604 4.93l-2.29 4.93H3.281V8.514Z"/><path id="Shape" d="M31.303 15.012C30.27 12.548 25.24 1.165 24.97.807c-.09-.224.494-.359 1.347-.359 1.347 0 1.617.18 2.245 1.793l.674 1.792h8.488l.808-1.792C39.206.76 39.566.448 40.643.448c.674 0 1.258.135 1.258.359 0 .179-1.527 3.809-3.413 8.066l-3.413 7.708h-1.572c-1.302 0-1.616-.224-2.2-1.569Zm5.209-8.11c0-.09-1.347-.18-2.964-.18-2.2 0-2.919.134-2.74.582.135.27.81 1.838 1.483 3.406l1.257 2.868 1.482-3.271c.808-1.793 1.482-3.316 1.482-3.406Z"/><path id="Path" d="M45.494 15.46c0-1.075.134-1.12 2.694-1.12h2.694V9.41c0-4.346-.09-5.018-.898-5.825-1.077-1.075-2.604-1.165-3.996-.134-1.033.672-1.123.672-1.662-.09-.853-1.165-.808-1.434.539-2.33.718-.448 2.066-.762 3.413-.762 1.886 0 2.38.224 3.637 1.434l1.437 1.434.135 6.722.18 6.722H49.58c-4.042 0-4.086 0-4.086-1.12Z"/><path id="Shape" d="M78.725 8.514V.448H81.42v5.378h1.93c1.797 0 1.977-.135 3.683-2.69C88.695.673 88.964.449 90.536.449c1.931 0 1.931-.134-.674 3.496l-1.751 2.33 1.168.538c3.413 1.568 3.233 8.066-.27 9.276-.808.269-3.413.493-5.838.493h-4.446V8.514Zm9.341 5.11c1.213-.808 1.347-3.093.225-4.303-.584-.627-1.393-.807-3.818-.807H81.42v5.826h2.829c1.796 0 3.143-.224 3.817-.717ZM121.388 8.56V.447h2.694v5.378h1.796c1.662 0 1.887-.18 3.683-2.69 1.751-2.509 2.02-2.688 3.637-2.688h1.707l-1.976 2.779-2.021 2.778 1.617 1.434c1.527 1.3 1.661 1.613 1.661 3.943 0 2.107-.18 2.69-1.257 3.72-1.168 1.21-1.437 1.255-6.377 1.39l-5.164.178V8.56Zm9.43 4.884c1.078-1.076 1.168-2.555.18-3.944-.584-.851-1.078-.986-3.817-.986h-3.099v5.826h2.92c2.334 0 3.098-.18 3.816-.896Z"/><path id="Path" d="M158.661 11.83c0-2.599.225-5.601.494-6.721 1.033-4.123 5.434-6.095 9.565-4.302 3.368 1.523 3.862 2.778 3.862 9.858v5.916h-2.694v-5.423c0-6.856-.763-8.424-3.952-8.47-3.593 0-4.58 1.928-4.58 8.963v4.93H158.66v-4.75Z"/><path id="Shape" d="M177.522 8.514V.448h1.347c1.303 0 1.348.045 1.348 2.196V4.84l3.278.313c3.997.404 5.569 1.166 6.422 3.137.808 1.972.808 3.45-.045 5.423-.898 2.196-2.784 2.868-8.084 2.868h-4.266V8.514Zm9.206 4.706c.629-.583 1.123-1.613 1.123-2.24 0-.628-.494-1.659-1.123-2.242-.898-.94-1.527-1.12-3.817-1.12h-2.694v6.722h2.694c2.29 0 2.92-.18 3.817-1.12Z"/><path id="Path" d="M199.527 15.46c0-1.075.135-1.12 2.47-1.12h2.47V.448h2.694V14.34h2.47c2.335 0 2.47.045 2.47 1.12v1.12h-12.574v-1.12ZM241.74 11.83c0-2.599.225-5.601.494-6.721C243.267.986 247.668-.986 251.8.807c3.368 1.523 3.862 2.778 3.862 9.858v5.916H252.967v-5.423c0-6.856-.763-8.424-3.952-8.47-3.592 0-4.58 1.928-4.58 8.963v4.93H241.74v-4.75ZM260.602 8.514V.448h2.649l.135 5.87.135 5.916 4.49-5.781c4.222-5.377 4.626-5.78 6.198-5.915l1.661-.135V16.58h-2.649l-.135-6.094-.135-6.14-4.715 6.14c-4.356 5.602-4.85 6.095-6.153 6.095h-1.481V8.514ZM280.81 8.514V.448h11.676v2.24h-8.982V7.17h8.084v2.689h-8.084v4.481h8.982v2.24H280.81z"/><path id="Shape" d="M296.528 8.514V.448h1.347c1.302 0 1.347.045 1.347 2.196V4.84l3.278.313c3.997.404 5.569 1.166 6.422 3.137.809 1.972.809 3.45-.045 5.423-.898 2.196-2.784 2.868-8.083 2.868h-4.266V8.514Zm9.206 4.706c.628-.583 1.122-1.613 1.122-2.24 0-.628-.494-1.659-1.122-2.242-.898-.94-1.527-1.12-3.817-1.12h-2.695v6.722h2.695c2.29 0 2.919-.18 3.817-1.12Z"/></g></g></g></svg>